<svg xmlns="http://www.w3.org/2000/svg" width="120" height="150" viewBox="0 0 120 150">
  <!-- Body — golden spiral form -->
  <path d="M60,18 C85,12 100,30 98,55 C96,78 82,98 58,102 C34,106 20,90 20,68 C20,50 32,30 60,18Z" fill="#1a1a1a"/>
  <!-- Wing — inner spiral -->
  <path d="M58,30 C75,26 88,38 86,55 C84,70 74,82 58,85 C42,88 32,78 32,62 C32,48 42,34 58,30Z" fill="#333"/>
  <!-- Core — orange spiral heart -->
  <path d="M58,45 C68,42 76,50 74,58 C72,66 65,72 58,72 C50,72 44,66 44,58 C44,50 50,44 58,45Z" fill="#f97316"/>
  <!-- Beak -->
  <polygon points="98,42 115,35 108,46" fill="#f97316"/>
  <!-- Eye -->
  <circle cx="86" cy="38" r="3" fill="#fafaf9"/>
  <!-- Tail -->
  <path d="M20,78 C14,92 8,108 12,118 L22,112 C20,100 22,88 24,80Z" fill="#1a1a1a"/>
</svg>
